<svg width="20" height="13" viewBox="0 0 20 13" fill="none" xmlns="http://www.w3.org/2000/svg">
<path d="M0 11.9167C0 12.515 0.485025 13 1.08333 13H18.9167C19.515 13 20 12.515 20 11.9167C20 11.3184 19.515 10.8333 18.9167 10.8333H1.08333C0.485025 10.8333 0 11.3184 0 11.9167ZM0 6.5C0 7.09831 0.485025 7.58333 1.08333 7.58333H18.9167C19.515 7.58333 20 7.09831 20 6.5C20 5.90169 19.515 5.41667 18.9167 5.41667H1.08333C0.485025 5.41667 0 5.90169 0 6.5ZM1.08333 0C0.485025 0 0 0.485025 0 1.08333C0 1.68164 0.485025 2.16667 1.08333 2.16667H18.9167C19.515 2.16667 20 1.68164 20 1.08333C20 0.485025 19.515 0 18.9167 0H1.08333Z" fill="#3E3D3D"/>
</svg>
